<svg xmlns="http://www.w3.org/2000/svg" width="455" height="109" viewBox="0 0 455 109"><defs><filter id="a" width="200%" height="200%" x="-50%" y="-50%"><feMorphology in="SourceGraphic" operator="dilate" radius=".5" result="SvgjsFeMorphology1030Out"/><feOffset dy="7" in="SvgjsFeMorphology1030Out" result="SvgjsFeOffset1031Out"/><feGaussianBlur in="SvgjsFeOffset1031Out" result="SvgjsFeGaussianBlur1032Out" stdDeviation="3.75"/><feComposite in="SvgjsFeGaussianBlur1032Out" in2="SourceAlpha" operator="out" result="SvgjsFeComposite1033Out"/></filter><linearGradient id="b" x1="960.5" x2="960.5" y1="3743.75" y2="3883.25" gradientUnits="userSpaceOnUse"><stop offset="0" stop-color="#d5d5d5" stop-opacity=".44"/><stop offset=".43" stop-color="#fff" stop-opacity=".25"/><stop offset="1" stop-color="#fff" stop-opacity="0"/></linearGradient></defs><path fill-opacity=".28" d="M960.5 3767c121.23 0 219.5 20.82 219.5 46.5s-98.27 46.5-219.5 46.5-219.5-20.82-219.5-46.5 98.27-46.5 219.5-46.5z" filter="url(#a)" transform="translate(-733 -3766)"/><path fill="#fff" d="M227.5 1C348.73 1 447 21.82 447 47.5S348.73 94 227.5 94 8 73.18 8 47.5 106.27 1 227.5 1z"/><path fill="#fff" d="M227.5 1C348.73 1 447 21.82 447 47.5S348.73 94 227.5 94 8 73.18 8 47.5 106.27 1 227.5 1z"/><path fill="url(#b)" d="M960.5 3767c121.23 0 219.5 20.82 219.5 46.5s-98.27 46.5-219.5 46.5-219.5-20.82-219.5-46.5 98.27-46.5 219.5-46.5z" transform="translate(-733 -3766)"/></svg>