<svg xmlns="http://www.w3.org/2000/svg" xmlns:xlink="http://www.w3.org/1999/xlink" width="612" height="805" viewBox="0 0 612 805"><svg width="20" height="13" viewBox="0 0 20 13" id="icon-crown" y="0"><path fill="#00aaef" d="M9.85 13h.22l3.57-7.08 6 3.75.36.02L16.94 0l-2.08.29 1.8 5.39-4-2.37-.74 1.53-1.94 3.95-1.64-3.48-1.75 1.04zM.35 9.67L10 3.69l1.44.86.71-1.54-2.03-1.2h-.24L3.34 5.68 5.14.29 3.06 0 0 9.69z"></path></svg><svg id="logo" viewBox="0 0 612 792" width="612" height="792" y="13"><style>.st0{fill:#8eb8c9}</style><path class="st0" d="M382 391.9c3.4 0 6.2 2.7 6.2 6 0 3.4-2.7 6.1-6.2 6.1s-6.3-2.7-6.3-6.1c.1-3.3 2.8-6 6.3-6zm0 1.3c-2.6 0-4.7 2.2-4.7 4.8 0 2.7 2 4.8 4.7 4.8 2.6 0 4.6-2.1 4.6-4.8.1-2.7-1.9-4.8-4.6-4.8zm-.9 7.9h-1.4v-6c.6-.1 1.3-.2 2.3-.2 1.1 0 1.7.2 2.1.5.4.3.6.7.6 1.3 0 .7-.6 1.2-1.3 1.4v.1c.6.2.9.7 1.1 1.5.2.9.3 1.3.4 1.5h-1.5c-.2-.2-.3-.7-.5-1.5-.1-.6-.5-.9-1.3-.9h-.7v2.3zm0-3.4h.7c.8 0 1.4-.3 1.4-.9 0-.6-.4-.9-1.3-.9-.4 0-.6 0-.8.1v1.7zM294.2 261.7h-2.4l-38.6 75-64.9-39.8-3.8-.1 33.1 102.5 22.4-3.1-19.4-57.1 43.2 25.2 8-16.3h-.1l21-41.8 17.8 36.9 18.9-11z"></path><path class="st0" d="M396.7 296.9l-104.2 63.3-15.6-9.1-7.7 16.3 22 12.8h2.7l70.6-41.1-19.4 57.1 22.4 3.1 33.1-102.5z"></path><path d="M137.2 468.2l-51.3-46.9h-3.7v81.6h16.4v-49.2l37.3 34h2.4l35.4-33.9v49.1h16.5v-81.6h-3.8zM210.4 422.5h16.4v80.4h-16.4zM290.5 420.2l-55.6 82.7h17.6l9.9-14.8h59.3l10.2 14.8h18.2l-56.7-82.7h-2.9zM312 474h-40.2l19.9-29.6L312 474zM411.9 468.2l-51.2-46.9h-3.8v81.6h16.5v-49.2l37.2 34h2.5l35.4-33.9v49.1h16.4v-81.6h-3.7zM485.2 422.5h16.4v80.4h-16.4zM105.4 555.6c-13.1 0-22.5-5.5-22.5-15.3s10-15.7 22.2-15.7c9.3 0 13.8 1.7 15.6 2.4v3.6l-.2.1c-2.3-1.5-6.4-3.9-15.3-3.9-10.4 0-17.7 4.4-17.7 13.4 0 8.6 6.3 13 17.9 13 8 0 12-2.1 16-5.2l.2.1v3.8c-2 1.3-7.4 3.7-16.2 3.7zM147.1 555.6c-11.3 0-21.6-5.1-21.6-15.4 0-10.7 10.9-15.6 21.6-15.6 10.7 0 21.6 4.8 21.6 15.5.1 10.3-10.3 15.5-21.6 15.5zm-.1-2.3c10.9 0 17.2-4.8 17.2-13.1 0-8.4-6.6-13.3-17.2-13.3-10.5 0-17 4.9-17 13.2.1 8.3 6.2 13.2 17 13.2zM175.5 525h3.8c8.8 8.3 19.6 17.9 28.5 25.7.1-6.8.1-19.3 0-25.6l.2-.1h2.4l.2.2c-.2 8.6-.2 20.7 0 29.8l-.2.2h-3.6c-7.6-7.3-20.1-18.5-28.6-26-.1 6-.1 18.3 0 25.9l-.2.1h-2.5l-.1-.1c.1-7.4.1-22.9 0-29.9l.1-.2zM219.1 555c.2-9.3.2-22.6 0-29.6l.2-.2c3.7-.1 6.9-.6 15.4-.6 12.3 0 23.2 5.1 23.2 15.8 0 9.6-10.5 15.2-23.2 15.2-7.5 0-12-.4-15.4-.4l-.2-.2zm4.1-2.3c2.6.2 4.2.7 10.8.7 13.1 0 19.3-4.8 19.3-12.9 0-8.8-6.5-13.6-19.5-13.6-5.1 0-7.6.4-10.6.9-.2 4.9-.1 16.7 0 24.9zM284.2 555.6c-11.3 0-21.6-5.1-21.6-15.4 0-10.7 10.9-15.6 21.6-15.6 10.7 0 21.6 4.8 21.6 15.5 0 10.3-10.3 15.5-21.6 15.5zm-.1-2.3c10.9 0 17.2-4.8 17.2-13.1 0-8.4-6.6-13.3-17.2-13.3-10.5 0-17 4.9-17 13.2 0 8.3 6.1 13.2 17 13.2zM330.1 555.1h-3.8l-.1-.1c.2-9.3.2-23 0-29.9l.2-.1h3.8l.2.2c-.1 4.7-.2 10.9-.2 17.2 9.9-6.5 17.1-12 24.3-17.3h5.4l.1.2c-5.3 3.1-11.7 7.4-18.4 12.1 5.6 5.1 13.2 11.9 20.3 17.7l-.1.2H356c-6.6-6.3-11.5-10.6-17.7-15.6l-8.2 5.7c0 3.4.1 6.8.2 9.8l-.2-.1zM367.1 555c.2-9.3.2-22.9 0-29.8l.1-.2h3.8l.2.1c-.2 10.4-.1 20.1 0 29.9l-.2.1h-3.8l-.1-.1zM380.1 525h3.8c8.8 8.3 19.6 17.9 28.5 25.7.1-6.8.1-19.3 0-25.6l.2-.1h2.4l.2.2c-.2 8.6-.2 20.7 0 29.8l-.2.2h-3.6c-7.6-7.3-20.1-18.5-28.6-26-.1 6-.1 18.3 0 25.9l-.2.1h-2.5l-.1-.2c.1-7.4.1-22.9 0-29.9l.1-.1zM443.9 555.6c-13 0-22.2-5.4-22.2-15.3 0-9.6 10.1-15.7 22-15.7 9.9 0 14.5 1.7 16.3 2.5v4l-.2.1c-2.2-1.8-6.1-4.3-16-4.3-10.5 0-17.5 4.5-17.5 13.4 0 9 6 13 17.6 13 6.1 0 9.8-1.1 13.2-2.4.1-3.4.1-5.4 0-10.5l.2-.2h3.8l.2.1c-.2 4.9-.2 7.7 0 12.1-4.9 1.9-9.7 3.2-17.4 3.2zM491.9 541.7c-4.7-.8-11.9-.1-18.2-1.5-4.3-1-6.6-3.2-6.6-6.9 0-5.2 5-8.7 16.1-8.7 8.9 0 13.3 1.8 15 2.8v3.5l-.2.1c-2-1.7-6.4-4.2-15-4.2-10.1 0-12.6 2.9-12.6 5.7 0 2.5 1.6 3.9 4.8 4.5 4.9 1 11.7.4 17.5 1.3 5 .7 8 2.8 8 6.9 0 5.8-5.4 10.3-17.9 10.3-9 0-14.3-2.1-16.5-3.5v-3.9l.2-.1c3.5 3.1 8.3 5.3 16.5 5.3 10.4 0 14.1-3 14.1-6.8.1-2.5-1.6-4.2-5.2-4.8zM518.6 422.1v1.6h-3v7.9h-1.9v-7.9h-3v-1.6h7.9zm10.3 9.5l-.3-5.6c0-.7 0-1.6-.1-2.6h-.1c-.2.8-.5 1.9-.8 2.8l-1.7 5.3h-2l-1.7-5.4c-.2-.7-.5-1.8-.7-2.7h-.1c0 .9 0 1.8-.1 2.6l-.3 5.6h-1.8l.7-9.5h2.9l1.6 4.6c.2.7.4 1.4.6 2.4h.1c.2-.8.5-1.7.6-2.3l1.6-4.7h2.8l.7 9.5h-1.9z"></path></svg></svg>